<?xml version="1.0" standalone="no"?>
<!DOCTYPE svg PUBLIC "-//W3C//DTD SVG 20010904//EN"
 "http://www.w3.org/TR/2001/REC-SVG-20010904/DTD/svg10.dtd">
<svg version="1.0" xmlns="http://www.w3.org/2000/svg"
 width="225.000000pt" height="225.000000pt" viewBox="0 0 225.000000 225.000000"
 preserveAspectRatio="xMidYMid meet">

<g transform="translate(0.000000,225.000000) scale(0.100000,-0.100000)"
fill="#000000" stroke="none">
<path d="M960 2049 c-32 -13 -78 -56 -96 -91 -18 -35 -18 -131 0 -166 48 -92
157 -128 251 -82 77 37 118 126 97 206 -16 60 -47 100 -97 124 -44 21 -114 25
-155 9z"/>
<path d="M915 1566 c-29 -13 -69 -44 -93 -71 -69 -78 -72 -99 -72 -492 l0
-343 95 0 95 0 0 -235 0 -235 140 0 140 0 0 235 0 235 140 0 140 0 0 203 c0
229 -9 277 -63 349 -18 24 -53 57 -78 73 -40 26 -47 36 -52 73 -26 177 -229
285 -392 208z"/>
</g>
</svg>
